# AST/ASF file generated using VICON BodyLanguage
# -----------------------------------------------
:version 1.10
:name VICON
:units
  mass 1.0
  length 0.45
  angle deg
:documentation
   .ast/.asf automatically generated from VICON data using
   VICON BodyBuilder and BodyLanguage model FoxedUp or BRILLIANT.MOD
:root
   order TX TY TZ RX RY RZ
   axis XYZ
   position 0 0 0  
   orientation 0 -0 0 
:bonedata
  begin
     id 1 
     name lhipjoint
     direction 0.515797 -0.759363 0.396637 
     length 2.47888 
     axis 0 -0 0  XYZ
  end
  begin
     id 2 
     name lfemur
     direction 0.34202 -0.939693 0  
     length 6.81885  
     axis 0 -0 20  XYZ
    dof rx ry rz
    limits (-160.0 20.0)
           (-70.0 70.0)
           (-60.0 70.0)
  end
  begin
     id 3 
     name ltibia
     direction 0.342037 -0.939687 0   
     length 7.89258   
     axis 0 -0 20   XYZ
    dof rx
    limits (-10.0 170.0)
  end
  begin
     id 4 
     name lfoot
     direction 0.173497 -0.476678 0.861787   
     length 2.51543   
     axis -90 -1.13533e-015 20   XYZ
    dof rx rz
    limits (-45.0 90.0)
           (-70.0 20.0)
  end
  begin
     id 5 
     name ltoes
     direction 1.53564e-011 -4.21897e-011 1   
     length 1.21388   
     axis -90 -1.13533e-015 20   XYZ
    dof rx
    limits (-90.0 20.0)
  end
  begin
     id 6 
     name rhipjoint
     direction -0.489454 -0.772941 0.403729   
     length 2.43534  
     axis 0 -0 0  XYZ 
  end
  begin
     id 7 
     name rfemur
     direction -0.34202 -0.939693 0   
     length 7.10357   
     axis 0 -0 -20   XYZ
    dof rx ry rz
    limits (-160.0 20.0)
           (-70.0 70.0)
           (-70.0 60.0)
  end
  begin
     id 8 
     name rtibia
     direction -0.34202 -0.939693 0   
     length 9.16127   
     axis 0 -0 -20   XYZ
    dof rx
    limits (-10.0 170.0)
 end
 begin
     id 9 
     name rfoot
     direction -0.270974 -0.748671 0.605033   
     length 1.74894  
     axis -90 1.13533e-015 -20   XYZ
    dof rx rz
    limits (-45.0 90.0)
           (-20.0 70.0)
  end
  begin
     id 10 
     name rtoes
     direction -1.53557e-011 -4.21759e-011 1   
     length 0.787585   
     axis -90 1.13533e-015 -20   XYZ
    dof rx
    limits (-90.0 20.0)
  end
  begin
     id 11 
     name lowerback
     direction -0.0140249 0.999561 0.0260968   
     length 2.16963   
     axis 0 -0 0   XYZ
    dof rx ry rz
    limits (-20.0 45.0)
           (-30.0 30.0)
           (-30.0 30.0)
  end
  begin
     id 12 
     name upperback
     direction 0.00860018 0.999959 -0.002711   
     length 2.1726   
     axis 0 -0 0   XYZ
    dof rx ry rz
    limits (-20.0 45.0)
           (-30.0 30.0)
           (-30.0 30.0)
  end
  begin
     id 13 
     name thorax
     direction 0.015211 0.999782 -0.0143191   
     length 2.17061   
     axis 0 -0 0   XYZ
    dof rx ry rz
    limits (-20.0 45.0)
           (-30.0 30.0)
           (-30.0 30.0)
  end
  begin
     id 14 
     name lowerneck
     direction -0.0140143 0.999447 0.030145   
     length 2.26749   
     axis 0 -0 0   XYZ
    dof rx ry rz
    limits (-20.0 45.0)
           (-30.0 30.0)
           (-30.0 30.0)
  end
  begin
     id 15 
     name upperneck
     direction 0.118062 0.961438 -0.248392   
     length 2.22728   
     axis 0 -0 0   XYZ
    dof rx ry rz
    limits (-20.0 45.0)
           (-30.0 30.0)
           (-30.0 30.0)
  end
  begin
     id 16
     name head
     direction 0.0431885 0.9954 -0.085514  
     length 2.28786  
     axis 0 -0 0   XYZ
    dof rx ry rz
    limits (-20.0 45.0)
           (-30.0 30.0)
           (-30.0 30.0)
  end
  begin
     id 17 
     name lclavicle
     direction 0.912126 0.409548 0.0172323  
     length 4.31571  
     axis 0 -0 0   XYZ
    dof ry rz
    limits (-20.0 10.0)
           (0.0 20.0)
  end
  begin
     id 18 
     name lhumerus
     direction 1 -4.48977e-011 1.93091e-027   
     length 5.13658   
     axis 180 -30 -90   XYZ
    dof rx ry rz
    limits (-60.0 90.0)
           (-90.0 90.0)
           (-90.0 90.0)
  end
  begin
     id 19
     name lradius
     direction 1 -4.48916e-011 6.84018e-027   
     length 3.22473   
     axis 180 -30 -90   XYZ
    dof rx
    limits (-10.0 170.0)
  end
  begin
     id 20
     name lwrist
     direction 1 -4.48987e-011 7.01981e-027   
     length 1.61236   
     axis -4.37994e-015 90 90   XYZ
    dof ry
    limits (-180.0 0.0)
 end
  begin
     id 21 
     name lhand
     direction 1 -4.49037e-011 1.40335e-026   
     length 0.936406   
     axis -8.96029e-015 90 90   XYZ
    dof rx rz
    limits (-90.0 90.0)
           (-45.0 45.0)
  end
  begin
     id 22 
     name lfingers
     direction 1 -4.48886e-011 2.8104e-026   
     length 0.754955   
     axis -1.79203e-014 90 90   XYZ
    dof rx
    limits (0.0 90.0)
  end
  begin
     id 23
     name lthumb
     direction 0.707107 -6.34937e-011 0.707107   
     length 1.08397   
     axis -90 45 -4.48555e-014   XYZ
    dof rx rz
    limits (-45.0 45.0)
           (-45.0 45.0)
  end
  begin
     id 24 
     name rclavicle
     direction -0.947962 0.317997 0.0156638   
     length 4.86918  
     axis 0 -0 0   XYZ 
    dof ry rz
    limits (-10.0 20.0)
           (-20.0 0.0)
  end
  begin
     id 25 
     name rhumerus
     direction -1 -4.48951e-011 2.80534e-018  
     length 5.60911   
     axis 180 30 90   XYZ
    dof rx ry rz
    limits (-90.0 60.0)
           (-90.0 90.0)
           (-90.0 90.0)
  end
  begin
     id 26 
     name rradius
     direction -1 -4.4898e-011 2.11315e-027   
     length 3.38704   
     axis 180 30 90   XYZ
    dof rx
    limits (-10.0 170.0)
  end
  begin
     id 27 
     name rwrist
     direction -1 -4.48933e-011 7.02314e-027   
     length 1.69352   
     axis -4.37994e-015 -90 -90   XYZ
    dof ry
    limits (-180.0 0.0)
  end
  begin
     id 28
     name rhand
     direction -1 -4.48937e-011 1.40458e-026   
     length 0.755878   
     axis -8.96029e-015 -90 -90   XYZ
    dof rx rz
    limits (-90.0 90.0)
           (-45.0 45.0)
  end
  begin
     id 29
     name rfingers
     direction -1 -4.4901e-011 2.80737e-026   
     length 0.609409   
     axis -1.79203e-014 -90 -90   XYZ
    dof rx
    limits (0.0 90.0)
  end
  begin
     id 30
     name rthumb
     direction -0.707107 -6.34968e-011 0.707107   
     length 0.874992   
     axis -90 -45 4.48555e-014   XYZ
    dof rx rz
    limits (-45.0 45.0)
           (-45.0 45.0)
  end
:hierarchy
  begin
    root lhipjoint rhipjoint lowerback
    lhipjoint lfemur
    lfemur ltibia
    ltibia lfoot
    lfoot ltoes
    rhipjoint rfemur
    rfemur rtibia
    rtibia rfoot
    rfoot rtoes
    lowerback upperback
    upperback thorax
    thorax lowerneck lclavicle rclavicle
    lowerneck upperneck
    upperneck head
    lclavicle lhumerus
    lhumerus lradius
    lradius lwrist
    lwrist lhand lthumb
    lhand lfingers
    rclavicle rhumerus
    rhumerus rradius
    rradius rwrist
    rwrist rhand rthumb
    rhand rfingers
  end

#!OML:ASF C:\ViconDB\ViconDB\414\Spring2016\041811\Spring2016.ASF
:FULLY-SPECIFIED
:DEGREES
1
root 6.67058 18.3168 -6.26467 -178.423 -9.58609 179.014
lowerback -4.17973 0.795196 -3.44572
upperback 1.38291 1.22564 0.807442
thorax 3.68383 0.519211 2.85694
lowerneck -15.0503 3.29045 -2.9686
upperneck 26.6975 2.47672 6.61963
head 10.95 1.20326 3.1662
rclavicle 3.41537e-014 -4.96962e-015
rhumerus -44.8812 -22.4088 -81.1651
rradius 30.612
rwrist 38.7999
rhand -30.8625 -15.6952
rfingers 7.12502
rthumb -4.1504 -45.6346
lclavicle 3.41537e-014 -4.96962e-015
lhumerus -37.9674 -4.96726 94.066
lradius 25.0637
lwrist -30.5911
lhand -28.4981 15.317
lfingers 7.12502
lthumb -1.86698 45.2886
rfemur 1.05695 -13.3394 18.6349
rtibia 12.4148
rfoot -9.79656 -0.639356
rtoes -12.5234
lfemur -7.55627 -11.7346 -18.1516
ltibia 22.0317
lfoot -19.6117 8.74568
ltoes -9.79662
2
root 6.6703 18.316 -6.2666 -178.429 -9.59835 179.022
lowerback -4.19115 0.780249 -3.43343
upperback 1.39432 1.2058 0.798629
thorax 3.70399 0.509117 2.8399
lowerneck -15.0619 3.32004 -2.87129
upperneck 26.7044 2.51373 6.54629
head 10.9563 1.22147 3.12828
rclavicle 9.72802e-015 2.38542e-015
rhumerus -45.0137 -23.1447 -80.7533
rradius 30.5624
rwrist 39.6484
rhand -30.8266 -15.5205
rfingers 7.12502
rthumb -4.11572 -45.4604
lclavicle 9.72802e-015 2.38542e-015
lhumerus -37.9461 -4.93354 94.0117
lradius 25.0479
lwrist -30.6233
lhand -28.5065 15.1801
lfingers 7.12502
lthumb -1.87507 45.1516
rfemur 1.06544 -13.3692 18.6393
rtibia 12.4256
rfoot -9.79562 -0.651153
rtoes -12.5419
lfemur -7.54559 -11.713 -18.1452
ltibia 22.0307
lfoot -19.612 8.72858
ltoes -9.79885
3
root 6.67117 18.316 -6.26836 -178.423 -9.59752 179.012
lowerback -4.19862 0.782012 -3.4386
upperback 1.39234 1.20888 0.794104
thorax 3.70593 0.510585 2.83847
lowerneck -15.0763 3.31423 -2.93549
upperneck 26.7283 2.49608 6.62766
head 10.9662 1.21571 3.16761
rclavicle -1.41572e-014 -1.15295e-014
rhumerus -45.0098 -23.345 -80.6772
rradius 30.4641
rwrist 39.6281
rhand -30.9873 -15.6462
rfingers 7.12502
rthumb -4.27089 -45.5831
lclavicle -1.41572e-014 -1.15295e-014
lhumerus -37.9401 -4.88454 93.9894
lradius 25.0229
lwrist -30.8488
lhand -28.59 15.1434
lfingers 7.12502
lthumb -1.95573 45.1141
rfemur 1.08462 -13.3251 18.6364
rtibia 12.394
rfoot -9.77932 -0.624504
rtoes -12.5244
lfemur -7.55566 -11.6966 -18.1499
ltibia 22.0468
lfoot -19.6143 8.69876
ltoes -9.82218
4
root 6.67133 18.3164 -6.27088 -178.418 -9.6043 179.042
lowerback -4.22343 0.777547 -3.40727
upperback 1.39306 1.20165 0.80499
thorax 3.72157 0.507264 2.83214
lowerneck -15.0798 3.31775 -2.96305
upperneck 26.7343 2.49727 6.66404
head 10.9677 1.21757 3.18598
rclavicle -1.963e-015 -1.0138e-014
rhumerus -45.0028 -23.4666 -80.6202
rradius 30.3781
rwrist 39.5669
rhand -31.1029 -15.7098
rfingers 7.12502
rthumb -4.38254 -45.6444
lclavicle -1.963e-015 -1.0138e-014
lhumerus -37.9208 -4.91065 94.0258
lradius 25.0687
lwrist -30.573
lhand -28.4765 15.1153
lfingers 7.12502
lthumb -1.84608 45.087
rfemur 1.09569 -13.3304 18.6688
rtibia 12.3776
rfoot -9.77955 -0.620584
rtoes -12.5445
lfemur -7.56369 -11.6953 -18.1131
ltibia 22.0559
lfoot -19.6222 8.68007
ltoes -9.78659
5
root 6.67182 18.3162 -6.27309 -178.412 -9.60138 179.031
lowerback -4.23944 0.779534 -3.43309
upperback 1.39622 1.20604 0.81467
thorax 3.73293 0.508445 2.85738
lowerneck -15.0935 3.31599 -2.99714
upperneck 26.7471 2.49932 6.67984
head 10.974 1.21696 3.19861
rclavicle -1.72073e-015 9.93923e-016
rhumerus -44.9351 -23.4458 -80.6307
rradius 30.2258
rwrist 39.493
rhand -31.1714 -15.7879
rfingers 7.12502
rthumb -4.44862 -45.7212
lclavicle -1.72073e-015 9.93923e-016
lhumerus -37.9053 -4.93429 94.066
lradius 25.0989
lwrist -30.4411
lhand -28.4406 15.0577
lfingers 7.12502
lthumb -1.81142 45.0298
rfemur 1.10626 -13.2858 18.6623
rtibia 12.3656
rfoot -9.74035 -0.596512
rtoes -12.5443
lfemur -7.56271 -11.6811 -18.122
ltibia 22.0615
lfoot -19.626 8.66163
ltoes -9.81094
6
root 6.67279 18.3158 -6.2753 -178.406 -9.60938 179.048
lowerback -4.25427 0.788322 -3.40721
upperback 1.39423 1.21694 0.81126
thorax 3.73897 0.514436 2.84034
lowerneck -15.095 3.31469 -3.00225
upperneck 26.75 2.49473 6.69302
head 10.9753 1.21588 3.20383
rclavicle -1.78533e-014 4.17448e-015
rhumerus -45.0638 -24.0328 -80.2612
rradius 30.1574
rwrist 40.0231
rhand -31.2037 -15.6894
rfingers 7.12502
rthumb -4.47988 -45.6221
lclavicle -1.78533e-014 4.17448e-015
lhumerus -37.8971 -4.95547 94.0734
lradius 25.0951
lwrist -30.416
lhand -28.4327 15.0132
lfingers 7.12502
lthumb -1.80379 44.9854
rfemur 1.10498 -13.2423 18.6938
rtibia 12.3536
rfoot -9.71234 -0.565756
rtoes -12.5208
lfemur -7.57292 -11.681 -18.0951
ltibia 22.0698
lfoot -19.6278 8.6515
ltoes -9.83931
